<mxfile host="app.diagrams.net" agent="Mozilla/5.0 (Macintosh; Intel Mac OS X 10.15; rv:130.0) Gecko/20100101 Firefox/130.0" version="24.7.12" pages="2">
  <diagram name="Page-1" id="74b105a0-9070-1c63-61bc-23e55f88626e">
    <mxGraphModel dx="1154" dy="547" grid="1" gridSize="10" guides="1" tooltips="1" connect="1" arrows="1" fold="1" page="1" pageScale="1.5" pageWidth="1169" pageHeight="826" background="none" math="0" shadow="0">
      <root>
        <mxCell id="0" style=";html=1;" />
        <mxCell id="1" style=";html=1;" parent="0" />
        <mxCell id="10b056a9c633e61c-28" style="edgeStyle=orthogonalEdgeStyle;rounded=0;html=1;endArrow=block;endFill=1;jettySize=auto;orthogonalLoop=1;strokeWidth=2;startArrow=none;startFill=0;" parent="1" source="10b056a9c633e61c-10" edge="1">
          <mxGeometry relative="1" as="geometry">
            <Array as="points">
              <mxPoint x="1267" y="310" />
              <mxPoint x="247" y="310" />
            </Array>
            <mxPoint x="247" y="590" as="targetPoint" />
          </mxGeometry>
        </mxCell>
        <mxCell id="10b056a9c633e61c-29" style="edgeStyle=orthogonalEdgeStyle;rounded=0;html=1;endArrow=block;endFill=1;jettySize=auto;orthogonalLoop=1;fontSize=12;strokeWidth=2;startArrow=none;startFill=0;" parent="1" source="10b056a9c633e61c-15" edge="1">
          <mxGeometry relative="1" as="geometry">
            <Array as="points">
              <mxPoint x="1507" y="310" />
              <mxPoint x="247" y="310" />
            </Array>
            <mxPoint x="247" y="590" as="targetPoint" />
          </mxGeometry>
        </mxCell>
        <mxCell id="10b056a9c633e61c-30" value="LLM Agent data flow" style="text;strokeColor=none;fillColor=none;html=1;fontSize=24;fontStyle=1;verticalAlign=middle;align=center;" parent="1" vertex="1">
          <mxGeometry x="80" y="40" width="1590" height="40" as="geometry" />
        </mxCell>
        <mxCell id="dVDQ1dHZeW1puFKevPLn-4" style="edgeStyle=orthogonalEdgeStyle;rounded=0;orthogonalLoop=1;jettySize=auto;html=1;exitX=1;exitY=0.5;exitDx=0;exitDy=0;entryX=0;entryY=0.5;entryDx=0;entryDy=0;" edge="1" parent="1" source="dVDQ1dHZeW1puFKevPLn-2" target="dVDQ1dHZeW1puFKevPLn-3">
          <mxGeometry relative="1" as="geometry" />
        </mxCell>
        <mxCell id="dVDQ1dHZeW1puFKevPLn-2" value="&lt;div&gt;Input&lt;/div&gt;&lt;div&gt;MemberInfo &lt;/div&gt;" style="rounded=1;whiteSpace=wrap;html=1;" vertex="1" parent="1">
          <mxGeometry x="330" y="180" width="120" height="60" as="geometry" />
        </mxCell>
        <mxCell id="dVDQ1dHZeW1puFKevPLn-6" style="edgeStyle=orthogonalEdgeStyle;rounded=0;orthogonalLoop=1;jettySize=auto;html=1;exitX=1;exitY=0.5;exitDx=0;exitDy=0;" edge="1" parent="1" source="dVDQ1dHZeW1puFKevPLn-3" target="dVDQ1dHZeW1puFKevPLn-7">
          <mxGeometry relative="1" as="geometry">
            <mxPoint x="690" y="210" as="targetPoint" />
          </mxGeometry>
        </mxCell>
        <mxCell id="dVDQ1dHZeW1puFKevPLn-3" value="&lt;div&gt;Update to PG&lt;br&gt;&lt;/div&gt;&lt;div&gt;members/update&lt;/div&gt;" style="rounded=1;whiteSpace=wrap;html=1;" vertex="1" parent="1">
          <mxGeometry x="490" y="180" width="120" height="60" as="geometry" />
        </mxCell>
        <mxCell id="dVDQ1dHZeW1puFKevPLn-32" style="edgeStyle=orthogonalEdgeStyle;rounded=0;orthogonalLoop=1;jettySize=auto;html=1;entryX=0;entryY=0.5;entryDx=0;entryDy=0;" edge="1" parent="1" source="dVDQ1dHZeW1puFKevPLn-7" target="dVDQ1dHZeW1puFKevPLn-31">
          <mxGeometry relative="1" as="geometry" />
        </mxCell>
        <mxCell id="dVDQ1dHZeW1puFKevPLn-7" value="Postgres" style="shape=cylinder3;whiteSpace=wrap;html=1;boundedLbl=1;backgroundOutline=1;size=6;" vertex="1" parent="1">
          <mxGeometry x="657" y="185" width="90" height="50" as="geometry" />
        </mxCell>
        <mxCell id="dVDQ1dHZeW1puFKevPLn-10" value="&lt;div&gt;Qdrant&lt;/div&gt;&lt;div&gt;&lt;br&gt;&lt;/div&gt;&lt;div&gt;&lt;br&gt;&lt;/div&gt;&lt;div&gt;&lt;br&gt;&lt;/div&gt;&lt;div&gt;&lt;br&gt;&lt;/div&gt;&lt;div&gt;&lt;br&gt;&lt;/div&gt;&lt;div&gt;&lt;br&gt;&lt;/div&gt;&lt;div&gt;&lt;br&gt;&lt;/div&gt;&lt;div&gt;&lt;br&gt;&lt;/div&gt;" style="shape=cylinder3;whiteSpace=wrap;html=1;boundedLbl=1;backgroundOutline=1;size=7;" vertex="1" parent="1">
          <mxGeometry x="1030" y="122" width="110" height="160" as="geometry" />
        </mxCell>
        <mxCell id="dVDQ1dHZeW1puFKevPLn-11" value="Collection V1" style="rounded=1;whiteSpace=wrap;html=1;" vertex="1" parent="1">
          <mxGeometry x="1039" y="162" width="90" height="30" as="geometry" />
        </mxCell>
        <mxCell id="dVDQ1dHZeW1puFKevPLn-40" style="edgeStyle=orthogonalEdgeStyle;rounded=0;orthogonalLoop=1;jettySize=auto;html=1;curved=1;" edge="1" parent="1" source="dVDQ1dHZeW1puFKevPLn-12" target="dVDQ1dHZeW1puFKevPLn-37">
          <mxGeometry relative="1" as="geometry">
            <Array as="points">
              <mxPoint x="1084" y="320" />
              <mxPoint x="780" y="320" />
            </Array>
          </mxGeometry>
        </mxCell>
        <mxCell id="dVDQ1dHZeW1puFKevPLn-12" value="Collection V3" style="rounded=1;whiteSpace=wrap;html=1;" vertex="1" parent="1">
          <mxGeometry x="1039" y="235" width="90" height="30" as="geometry" />
        </mxCell>
        <mxCell id="dVDQ1dHZeW1puFKevPLn-13" value="..." style="rounded=1;whiteSpace=wrap;html=1;" vertex="1" parent="1">
          <mxGeometry x="1039" y="199" width="90" height="30" as="geometry" />
        </mxCell>
        <mxCell id="dVDQ1dHZeW1puFKevPLn-22" value="Hourly triggered by Airflow" style="text;strokeColor=none;fillColor=none;align=left;verticalAlign=middle;spacingLeft=4;spacingRight=4;overflow=hidden;points=[[0,0.5],[1,0.5]];portConstraint=eastwest;rotatable=0;whiteSpace=wrap;html=1;" vertex="1" parent="1">
          <mxGeometry x="754" y="192" width="110" height="30" as="geometry" />
        </mxCell>
        <mxCell id="dVDQ1dHZeW1puFKevPLn-27" style="edgeStyle=orthogonalEdgeStyle;rounded=0;orthogonalLoop=1;jettySize=auto;html=1;exitX=1;exitY=0.5;exitDx=0;exitDy=0;entryX=0;entryY=0.5;entryDx=0;entryDy=0;" edge="1" parent="1" source="dVDQ1dHZeW1puFKevPLn-25" target="dVDQ1dHZeW1puFKevPLn-26">
          <mxGeometry relative="1" as="geometry" />
        </mxCell>
        <mxCell id="dVDQ1dHZeW1puFKevPLn-25" value="Query&lt;div&gt;Member Info &lt;/div&gt;" style="rounded=1;whiteSpace=wrap;html=1;" vertex="1" parent="1">
          <mxGeometry x="320" y="340" width="120" height="60" as="geometry" />
        </mxCell>
        <mxCell id="dVDQ1dHZeW1puFKevPLn-38" style="edgeStyle=orthogonalEdgeStyle;rounded=0;orthogonalLoop=1;jettySize=auto;html=1;exitX=1;exitY=0.5;exitDx=0;exitDy=0;" edge="1" parent="1" source="dVDQ1dHZeW1puFKevPLn-26" target="dVDQ1dHZeW1puFKevPLn-37">
          <mxGeometry relative="1" as="geometry" />
        </mxCell>
        <mxCell id="dVDQ1dHZeW1puFKevPLn-26" value="Query member object summary" style="rounded=1;whiteSpace=wrap;html=1;" vertex="1" parent="1">
          <mxGeometry x="490" y="340" width="120" height="60" as="geometry" />
        </mxCell>
        <mxCell id="dVDQ1dHZeW1puFKevPLn-28" value="" style="endArrow=classic;html=1;rounded=0;exitX=0.449;exitY=0.991;exitDx=0;exitDy=0;exitPerimeter=0;curved=1;entryX=0.5;entryY=0;entryDx=0;entryDy=0;" edge="1" parent="1" source="dVDQ1dHZeW1puFKevPLn-7" target="dVDQ1dHZeW1puFKevPLn-26">
          <mxGeometry width="50" height="50" relative="1" as="geometry">
            <mxPoint x="580" y="210" as="sourcePoint" />
            <mxPoint x="550" y="330" as="targetPoint" />
            <Array as="points">
              <mxPoint x="590" y="270" />
            </Array>
          </mxGeometry>
        </mxCell>
        <mxCell id="dVDQ1dHZeW1puFKevPLn-35" style="edgeStyle=orthogonalEdgeStyle;rounded=0;orthogonalLoop=1;jettySize=auto;html=1;exitX=0.5;exitY=1;exitDx=0;exitDy=0;curved=1;dashed=1;" edge="1" parent="1" source="dVDQ1dHZeW1puFKevPLn-31">
          <mxGeometry relative="1" as="geometry">
            <mxPoint x="610" y="280" as="targetPoint" />
            <Array as="points">
              <mxPoint x="904" y="255" />
              <mxPoint x="770" y="280" />
            </Array>
          </mxGeometry>
        </mxCell>
        <mxCell id="dVDQ1dHZeW1puFKevPLn-31" value="Enhance data LLM Agent" style="rounded=1;whiteSpace=wrap;html=1;" vertex="1" parent="1">
          <mxGeometry x="858" y="190" width="93" height="40" as="geometry" />
        </mxCell>
        <mxCell id="dVDQ1dHZeW1puFKevPLn-33" style="edgeStyle=orthogonalEdgeStyle;rounded=0;orthogonalLoop=1;jettySize=auto;html=1;exitX=1;exitY=0.5;exitDx=0;exitDy=0;entryX=0.003;entryY=0.55;entryDx=0;entryDy=0;entryPerimeter=0;" edge="1" parent="1" source="dVDQ1dHZeW1puFKevPLn-31" target="dVDQ1dHZeW1puFKevPLn-10">
          <mxGeometry relative="1" as="geometry" />
        </mxCell>
        <mxCell id="dVDQ1dHZeW1puFKevPLn-34" value="Update beck to &quot;Summary&quot; column" style="edgeStyle=orthogonalEdgeStyle;rounded=1;orthogonalLoop=1;jettySize=auto;html=1;exitX=0.563;exitY=0.01;exitDx=0;exitDy=0;entryX=0.554;entryY=-0.009;entryDx=0;entryDy=0;entryPerimeter=0;exitPerimeter=0;curved=0;" edge="1" parent="1" source="dVDQ1dHZeW1puFKevPLn-31" target="dVDQ1dHZeW1puFKevPLn-7">
          <mxGeometry relative="1" as="geometry">
            <mxPoint x="961" y="220" as="sourcePoint" />
            <mxPoint x="1040" y="220" as="targetPoint" />
            <Array as="points">
              <mxPoint x="910" y="160" />
              <mxPoint x="707" y="160" />
            </Array>
          </mxGeometry>
        </mxCell>
        <mxCell id="dVDQ1dHZeW1puFKevPLn-36" value="Enhance if not calculated" style="text;strokeColor=none;fillColor=none;align=left;verticalAlign=middle;spacingLeft=4;spacingRight=4;overflow=hidden;points=[[0,0.5],[1,0.5]];portConstraint=eastwest;rotatable=0;whiteSpace=wrap;html=1;" vertex="1" parent="1">
          <mxGeometry x="780" y="260" width="110" height="30" as="geometry" />
        </mxCell>
        <mxCell id="dVDQ1dHZeW1puFKevPLn-42" value="" style="edgeStyle=orthogonalEdgeStyle;rounded=0;orthogonalLoop=1;jettySize=auto;html=1;" edge="1" parent="1" source="dVDQ1dHZeW1puFKevPLn-37" target="dVDQ1dHZeW1puFKevPLn-41">
          <mxGeometry relative="1" as="geometry" />
        </mxCell>
        <mxCell id="dVDQ1dHZeW1puFKevPLn-37" value="&lt;div&gt;Base on version query top 5 similar items&lt;/div&gt;" style="rounded=1;whiteSpace=wrap;html=1;" vertex="1" parent="1">
          <mxGeometry x="670" y="340" width="120" height="60" as="geometry" />
        </mxCell>
        <mxCell id="dVDQ1dHZeW1puFKevPLn-41" value="&lt;div&gt;Rerank&lt;/div&gt;&lt;div&gt;Join query &amp;amp; 5 candidate&#39;s member info as prompt &amp;amp; let it recommend&lt;br&gt;&lt;/div&gt;" style="rounded=1;whiteSpace=wrap;html=1;" vertex="1" parent="1">
          <mxGeometry x="831" y="340" width="179" height="60" as="geometry" />
        </mxCell>
        <mxCell id="dVDQ1dHZeW1puFKevPLn-44" value="Return top recommendation &amp;amp; reason" style="rounded=1;whiteSpace=wrap;html=1;" vertex="1" parent="1">
          <mxGeometry x="1150" y="340" width="120" height="60" as="geometry" />
        </mxCell>
        <mxCell id="dVDQ1dHZeW1puFKevPLn-48" style="edgeStyle=orthogonalEdgeStyle;rounded=0;orthogonalLoop=1;jettySize=auto;html=1;" edge="1" parent="1" source="dVDQ1dHZeW1puFKevPLn-46" target="dVDQ1dHZeW1puFKevPLn-44">
          <mxGeometry relative="1" as="geometry" />
        </mxCell>
        <mxCell id="dVDQ1dHZeW1puFKevPLn-46" value="Redis" style="shape=cylinder3;whiteSpace=wrap;html=1;boundedLbl=1;backgroundOutline=1;size=5.666666666666686;" vertex="1" parent="1">
          <mxGeometry x="1054" y="345" width="60" height="50" as="geometry" />
        </mxCell>
        <mxCell id="dVDQ1dHZeW1puFKevPLn-47" style="edgeStyle=orthogonalEdgeStyle;rounded=0;orthogonalLoop=1;jettySize=auto;html=1;entryX=0;entryY=0.5;entryDx=0;entryDy=0;entryPerimeter=0;" edge="1" parent="1" source="dVDQ1dHZeW1puFKevPLn-41" target="dVDQ1dHZeW1puFKevPLn-46">
          <mxGeometry relative="1" as="geometry" />
        </mxCell>
        <mxCell id="dVDQ1dHZeW1puFKevPLn-49" value="Cache query result &lt;br&gt;binary to redis" style="text;html=1;align=center;verticalAlign=middle;resizable=0;points=[];autosize=1;strokeColor=none;fillColor=none;" vertex="1" parent="1">
          <mxGeometry x="1025" y="400" width="120" height="40" as="geometry" />
        </mxCell>
      </root>
    </mxGraphModel>
  </diagram>
  <diagram id="xiVvpDYxOgYevAIMiSX9" name="Page-2">
    <mxGraphModel dx="1793" dy="955" grid="1" gridSize="10" guides="1" tooltips="1" connect="1" arrows="1" fold="1" page="1" pageScale="1" pageWidth="850" pageHeight="1100" math="0" shadow="0">
      <root>
        <mxCell id="0" />
        <mxCell id="1" parent="0" />
        <mxCell id="6wpH6wQORsbUzek3Vg3N-1" value="&lt;h1 style=&quot;margin-top: 0px;&quot;&gt;LLM Agent API&lt;/h1&gt;" style="text;html=1;whiteSpace=wrap;overflow=hidden;rounded=0;" vertex="1" parent="1">
          <mxGeometry x="320" y="60" width="180" height="120" as="geometry" />
        </mxCell>
        <mxCell id="6wpH6wQORsbUzek3Vg3N-5" value="&lt;div&gt;Member 物件&lt;br&gt;&lt;/div&gt;" style="rounded=1;whiteSpace=wrap;html=1;" vertex="1" parent="1">
          <mxGeometry x="350" y="120" width="120" height="60" as="geometry" />
        </mxCell>
        <mxCell id="6wpH6wQORsbUzek3Vg3N-7" value="parse Version欄位" style="text;html=1;align=center;verticalAlign=middle;resizable=0;points=[];autosize=1;strokeColor=none;fillColor=none;" vertex="1" parent="1">
          <mxGeometry x="412.5" y="190" width="120" height="30" as="geometry" />
        </mxCell>
        <mxCell id="6wpH6wQORsbUzek3Vg3N-10" value="&lt;div&gt;&lt;b&gt;&lt;br&gt;&lt;/b&gt;&lt;/div&gt;&lt;div&gt;&lt;b&gt;&lt;br&gt;&lt;/b&gt;&lt;/div&gt;&lt;div&gt;&lt;b&gt;&lt;br&gt;&lt;/b&gt;&lt;/div&gt;&lt;div&gt;&lt;b&gt;&lt;br&gt;&lt;/b&gt;&lt;/div&gt;&lt;div&gt;&lt;b&gt;&lt;br&gt;&lt;/b&gt;&lt;/div&gt;&lt;div&gt;&lt;b&gt;&lt;br&gt;&lt;/b&gt;&lt;/div&gt;&lt;div&gt;&lt;b&gt;&lt;br&gt;&lt;/b&gt;&lt;/div&gt;&lt;div&gt;&lt;b&gt;&lt;br&gt;&lt;/b&gt;&lt;/div&gt;&lt;div&gt;&lt;b&gt;&lt;br&gt;&lt;/b&gt;&lt;/div&gt;&lt;div&gt;&lt;b&gt;&lt;br&gt;&lt;/b&gt;&lt;/div&gt;&lt;div&gt;&lt;b&gt;&lt;br&gt;&lt;/b&gt;&lt;/div&gt;&lt;div&gt;&lt;b&gt;&lt;br&gt;&lt;/b&gt;&lt;/div&gt;&lt;div&gt;&lt;b&gt;&lt;br&gt;&lt;/b&gt;&lt;/div&gt;&lt;div&gt;&lt;b&gt;&lt;br&gt;&lt;/b&gt;&lt;/div&gt;&lt;div&gt;&lt;b&gt;&lt;br&gt;&lt;/b&gt;&lt;/div&gt;&lt;div&gt;&lt;b&gt;&lt;br&gt;&lt;/b&gt;&lt;/div&gt;&lt;div&gt;&lt;b&gt;&lt;br&gt;&lt;/b&gt;&lt;/div&gt;&lt;div&gt;&lt;b&gt;&lt;br&gt;&lt;/b&gt;&lt;/div&gt;&lt;div&gt;&lt;b&gt;&lt;br&gt;&lt;/b&gt;&lt;/div&gt;&lt;div&gt;&lt;b&gt;\&lt;/b&gt;&lt;/div&gt;" style="rounded=1;whiteSpace=wrap;html=1;arcSize=8;" vertex="1" parent="1">
          <mxGeometry x="220" y="230" width="370" height="370" as="geometry" />
        </mxCell>
        <mxCell id="6wpH6wQORsbUzek3Vg3N-14" style="edgeStyle=orthogonalEdgeStyle;rounded=0;orthogonalLoop=1;jettySize=auto;html=1;exitX=0.5;exitY=1;exitDx=0;exitDy=0;" edge="1" parent="1" source="6wpH6wQORsbUzek3Vg3N-11">
          <mxGeometry relative="1" as="geometry">
            <mxPoint x="410" y="530" as="targetPoint" />
          </mxGeometry>
        </mxCell>
        <mxCell id="6wpH6wQORsbUzek3Vg3N-11" value="&lt;div&gt;Web search&amp;nbsp;&lt;/div&gt;&lt;div&gt;Linkedin info&lt;/div&gt;" style="rounded=1;whiteSpace=wrap;html=1;" vertex="1" parent="1">
          <mxGeometry x="277.5" y="411" width="100" height="60" as="geometry" />
        </mxCell>
        <mxCell id="6wpH6wQORsbUzek3Vg3N-27" style="edgeStyle=orthogonalEdgeStyle;rounded=0;orthogonalLoop=1;jettySize=auto;html=1;exitX=0.5;exitY=1;exitDx=0;exitDy=0;" edge="1" parent="1" source="6wpH6wQORsbUzek3Vg3N-12" target="6wpH6wQORsbUzek3Vg3N-13">
          <mxGeometry relative="1" as="geometry" />
        </mxCell>
        <mxCell id="6wpH6wQORsbUzek3Vg3N-12" value="&lt;div&gt;Web search&amp;nbsp;&lt;/div&gt;Company info" style="rounded=1;whiteSpace=wrap;html=1;" vertex="1" parent="1">
          <mxGeometry x="432.5" y="421" width="100" height="60" as="geometry" />
        </mxCell>
        <mxCell id="6wpH6wQORsbUzek3Vg3N-28" style="edgeStyle=orthogonalEdgeStyle;rounded=0;orthogonalLoop=1;jettySize=auto;html=1;exitX=0.5;exitY=1;exitDx=0;exitDy=0;" edge="1" parent="1" source="6wpH6wQORsbUzek3Vg3N-13" target="6wpH6wQORsbUzek3Vg3N-29">
          <mxGeometry relative="1" as="geometry">
            <mxPoint x="409.79999999999995" y="660" as="targetPoint" />
          </mxGeometry>
        </mxCell>
        <mxCell id="6wpH6wQORsbUzek3Vg3N-13" value="&lt;div&gt;1. Joint info&lt;/div&gt;&lt;div&gt;2. LLM validate&lt;/div&gt;&lt;div&gt;3. Summary to 2 sentence&lt;br&gt;&lt;/div&gt;" style="rounded=1;whiteSpace=wrap;html=1;" vertex="1" parent="1">
          <mxGeometry x="325" y="520" width="170" height="60" as="geometry" />
        </mxCell>
        <mxCell id="6wpH6wQORsbUzek3Vg3N-16" style="edgeStyle=orthogonalEdgeStyle;rounded=0;orthogonalLoop=1;jettySize=auto;html=1;exitX=0.5;exitY=1;exitDx=0;exitDy=0;" edge="1" parent="1" target="6wpH6wQORsbUzek3Vg3N-17">
          <mxGeometry relative="1" as="geometry">
            <mxPoint x="410" y="180" as="sourcePoint" />
          </mxGeometry>
        </mxCell>
        <mxCell id="6wpH6wQORsbUzek3Vg3N-24" value="&lt;pre&gt;company_url&lt;/pre&gt;" style="edgeStyle=orthogonalEdgeStyle;rounded=0;orthogonalLoop=1;jettySize=auto;html=1;" edge="1" parent="1" source="6wpH6wQORsbUzek3Vg3N-17" target="6wpH6wQORsbUzek3Vg3N-12">
          <mxGeometry x="0.3482" y="2" relative="1" as="geometry">
            <Array as="points">
              <mxPoint x="410" y="380" />
              <mxPoint x="483" y="380" />
            </Array>
            <mxPoint as="offset" />
          </mxGeometry>
        </mxCell>
        <mxCell id="6wpH6wQORsbUzek3Vg3N-25" style="edgeStyle=orthogonalEdgeStyle;rounded=0;orthogonalLoop=1;jettySize=auto;html=1;exitX=0.5;exitY=1;exitDx=0;exitDy=0;" edge="1" parent="1" source="6wpH6wQORsbUzek3Vg3N-17" target="6wpH6wQORsbUzek3Vg3N-13">
          <mxGeometry relative="1" as="geometry" />
        </mxCell>
        <mxCell id="6wpH6wQORsbUzek3Vg3N-17" value="&lt;div&gt;Member 資訊&lt;/div&gt;" style="rounded=1;whiteSpace=wrap;html=1;" vertex="1" parent="1">
          <mxGeometry x="350" y="310" width="120" height="50" as="geometry" />
        </mxCell>
        <mxCell id="6wpH6wQORsbUzek3Vg3N-18" value="&lt;div&gt;&lt;font style=&quot;font-size: 24px;&quot;&gt;&lt;b&gt;Langraph&lt;/b&gt;&lt;/font&gt;&lt;/div&gt;&lt;div&gt;&lt;font style=&quot;font-size: 24px;&quot;&gt;&lt;b&gt;Agent&lt;/b&gt;&lt;/font&gt;&lt;/div&gt;" style="text;whiteSpace=wrap;html=1;" vertex="1" parent="1">
          <mxGeometry x="237.5" y="240" width="132.5" height="50" as="geometry" />
        </mxCell>
        <mxCell id="6wpH6wQORsbUzek3Vg3N-19" style="edgeStyle=orthogonalEdgeStyle;rounded=0;orthogonalLoop=1;jettySize=auto;html=1;entryX=0.583;entryY=0.07;entryDx=0;entryDy=0;entryPerimeter=0;" edge="1" parent="1" source="6wpH6wQORsbUzek3Vg3N-17" target="6wpH6wQORsbUzek3Vg3N-11">
          <mxGeometry relative="1" as="geometry">
            <Array as="points">
              <mxPoint x="410" y="380" />
              <mxPoint x="336" y="380" />
            </Array>
          </mxGeometry>
        </mxCell>
        <mxCell id="6wpH6wQORsbUzek3Vg3N-20" value="&lt;pre&gt;linkedin_url&lt;/pre&gt;" style="edgeLabel;html=1;align=center;verticalAlign=middle;resizable=0;points=[];" vertex="1" connectable="0" parent="6wpH6wQORsbUzek3Vg3N-19">
          <mxGeometry x="0.0205" y="1" relative="1" as="geometry">
            <mxPoint x="-30" as="offset" />
          </mxGeometry>
        </mxCell>
        <mxCell id="6wpH6wQORsbUzek3Vg3N-29" value="&lt;div&gt;Output:&lt;/div&gt;&lt;div&gt;member_no, summary&lt;br&gt;&lt;/div&gt;" style="rounded=1;whiteSpace=wrap;html=1;" vertex="1" parent="1">
          <mxGeometry x="325" y="642" width="170" height="60" as="geometry" />
        </mxCell>
      </root>
    </mxGraphModel>
  </diagram>
</mxfile>
